# xmcd
#
# Track frame offsets: 
#        150
#        17825
#        28330
#        49185
#        65375
#        92465
#        105650
#        135875
#        153130
#        171405
#        186595
#
# Disc length: 2712 seconds
#
# Revision: 0
# Processed by: cddbd v1.4PL0 Copyright (c) Steve Scherf et al.
# Submitted via: ExactAudioCopy v0.90b4
#
DISCID=8c0a960b
DTITLE=Radio London - Radio London 2002
DYEAR=2002
DGENRE=Blues
TTITLE0=Walk on Down the Road
TTITLE1=Queen of the Dogs
TTITLE2=Learnin' How to Live With the Blues
TTITLE3=The Desert Song
TTITLE4=Unbreakable Heart
TTITLE5=Porch Swing Blues
TTITLE6=Humble Girl
TTITLE7=Rollin' and Tumblin'
TTITLE8=Best Part of Living
TTITLE9=Three Ring Groove
TTITLE10=Whiskey Prince
EXTD=
EXTT0=
EXTT1=
EXTT2=
EXTT3=
EXTT4=
EXTT5=
EXTT6=
EXTT7=
EXTT8=
EXTT9=
EXTT10=
PLAYORDER=
